<?xml version="1.0" standalone="no"?>
<!DOCTYPE svg PUBLIC "-//W3C//DTD SVG 1.1//EN" "http://www.w3.org/Graphics/SVG/1.1/DTD/svg11.dtd" >
<!--
2013-9-30: Created.
-->
<svg>
<metadata>
Created by iconfont
</metadata>
<defs>

<font id="iconfont" horiz-adv-x="1024" >
  <font-face
    font-family="iconfont"
    font-weight="500"
    font-stretch="normal"
    units-per-em="1024"
    ascent="896"
    descent="-128"
  />
    <missing-glyph />
    
    <glyph glyph-name="guanbi" unicode="&#60649;" d="M217.984898 181.256657l497.00599 497.00599 90.708689-90.708689-497.00599-497.00599-90.708689 90.708689ZM309.424005 679.140943l495.196317-495.196317-90.707965-90.707965-495.196317 495.196317 90.707965 90.707965Z"  horiz-adv-x="1024" />

    
    <glyph glyph-name="yiyuan" unicode="&#58898;" d="M710.448 672.624l-143.328 143.312c-11.792-21.504-34.336-36.272-60.624-36.272-26.272 0-48.832 14.768-60.624 36.272l-143.312-143.312c-16.064-16.064-16.064-42.352 0-58.416l134.56-134.576L437.12 626.88c0 9.12 7.376 16.512 16.528 16.512l105.712 0c9.12 0 16.496-7.392 16.496-16.512l0-147.264 134.592 134.576C726.512 630.256 726.512 656.544 710.448 672.624M795.712 179.44l143.328 143.328c-21.52 11.792-36.288 34.336-36.288 60.624 0 26.256 14.768 48.848 36.288 60.64l-143.328 143.312c-16.064 16.048-42.352 16.048-58.4 0l-134.544-134.576 147.216 0c9.12 0 16.528-7.392 16.528-16.512l0-105.712c0-9.136-7.408-16.512-16.528-16.512l-147.216 0 134.544-134.576C753.36 163.376 779.664 163.376 795.712 179.44M302.56 94.176l143.312-143.328c11.792 21.504 34.352 36.272 60.624 36.272 26.288 0 48.832-14.768 60.624-36.272l143.328 143.328c16.064 16.064 16.064 42.336 0 58.4l-134.592 134.544 0-147.232c0-9.104-7.376-16.528-16.496-16.528l-105.712 0c-9.136 0-16.528 7.424-16.528 16.528l0 147.232-134.56-134.544C286.496 136.512 286.496 110.24 302.56 94.176M217.28 587.328l-143.328-143.312c21.52-11.808 36.272-34.384 36.272-60.64 0-26.272-14.752-48.816-36.272-60.624l143.328-143.328c16.064-16.064 42.368-16.064 58.416 0l134.56 134.576-147.248 0c-9.12 0-16.512 7.376-16.512 16.512l0 105.696c0 9.136 7.392 16.528 16.512 16.528l147.248 0-134.56 134.576C259.648 603.392 233.344 603.392 217.28 587.328"  horiz-adv-x="1024" />

    
    <glyph glyph-name="jiudian" unicode="&#58970;" d="M957.335694 84.910111l-54.235229 0L903.100466 507.135458c0 30.79947-16.303314 62.821791-47.102784 62.821791L725.33376 569.957249c-20.618597 0-46.337351-23.537066-46.337351-44.154639l0-440.892499-36.839023 0L642.157385 731.130022c0 30.79947-16.687054 62.930261-47.487547 62.930261L184.012967 794.060283c-30.79947 0-64.765049-32.130791-64.765049-62.930261l0-646.220934-54.235229 0c-1.130753 0-2.046612-0.915859-2.046612-2.046612l0-144.286174c0-1.130753 0.915859-2.046612 2.046612-2.046612l892.323005 0c1.130753 0 2.046612 0.915859 2.046612 2.046612l0 144.286174C959.382307 83.993229 958.466448 84.910111 957.335694 84.910111zM341.305363 309.507402c0-20.618597-16.714683-37.332257-37.332257-37.332257L230.258221 272.175145c-20.618597 0-37.332257 16.714683-37.332257 37.332257l0 73.714885c0 20.618597 16.714683 37.332257 37.332257 37.332257l73.714885 0c20.618597 0 37.332257-16.714683 37.332257-37.332257L341.305363 309.507402zM341.305363 534.634766c0-20.618597-16.714683-37.332257-37.332257-37.332257L230.258221 497.302509c-20.618597 0-37.332257 16.714683-37.332257 37.332257l0 73.714885c0 20.618597 16.714683 37.332257 37.332257 37.332257l73.714885 0c20.618597 0 37.332257-16.714683 37.332257-37.332257L341.305363 534.634766zM565.40942 309.507402c0-20.618597-16.714683-37.332257-37.332257-37.332257L454.362278 272.175145c-20.618597 0-37.332257 16.714683-37.332257 37.332257l0 73.714885c0 20.618597 16.714683 37.332257 37.332257 37.332257l73.714885 0c20.618597 0 37.332257-16.714683 37.332257-37.332257L565.40942 309.507402zM565.40942 534.634766c0-20.618597-16.714683-37.332257-37.332257-37.332257L454.362278 497.302509c-20.618597 0-37.332257 16.714683-37.332257 37.332257l0 73.714885c0 20.618597 16.714683 37.332257 37.332257 37.332257l73.714885 0c20.618597 0 37.332257-16.714683 37.332257-37.332257L565.40942 534.634766zM846.818625 197.967026c0-20.618597-16.714683-37.332257-37.332257-37.332257L772.610506 160.63477c-20.618597 0-37.332257 16.714683-37.332257 37.332257l0 36.875862c0 20.618597 16.714683 37.332257 37.332257 37.332257l36.875862 0c20.618597 0 37.332257-16.714683 37.332257-37.332257L846.818625 197.967026zM846.818625 384.208754c0-20.618597-16.714683-37.332257-37.332257-37.332257L772.610506 346.876498c-20.618597 0-37.332257 16.714683-37.332257 37.332257l0 36.875862c0 20.618597 16.714683 37.332257 37.332257 37.332257l36.875862 0c20.618597 0 37.332257-16.714683 37.332257-37.332257L846.818625 384.208754z"  horiz-adv-x="1024" />

    
    <glyph glyph-name="gongchang" unicode="&#58884;" d="M786.726 363.54l94.126-40.16V174.53l7.1-7.537 53.452-56.812v-233.977h54.9V129.748l-7.086 7.523-53.419 56.804V353.26l-13.878 7.57-135.195 59.33-276.958-84.268v-451.508h276.958V363.54zM245.473 487.07c-18.138-4.512-35.771-8.936-52.934-13.223v-79.19c17.163 3.25 34.796 6.581 52.934 9.967V487.07zM741.267 347.88v-65.775c-15.633-2.949-30.864-5.83-45.657-8.601v62.948c14.793 3.68 30.024 7.516 45.657 11.428z m-160.29-211.954v-55.877H547.69V133.85c10.82 0.67 21.913 1.366 33.287 2.076z m73.926 4.526v-60.403h-38.824v57.993c12.61 0.792 25.546 1.584 38.824 2.41z m86.364 5.29v-65.672H695.61v62.88c14.793 0.874 30.024 1.83 45.657 2.793z m-160.29 76.056v-55.89c-11.374-1.058-22.46-2.13-33.287-3.133v53.876c10.82 1.659 21.934 3.4 33.287 5.147z m73.926 11.497v-60.416c-13.271-1.216-26.215-2.479-38.824-3.632V227.28c12.61 1.946 25.546 3.987 38.824 6.015z m86.364 13.441v-65.693c-15.633-1.488-30.864-2.942-45.657-4.328v62.928c14.793 2.3 30.024 4.656 45.657 7.093z m-160.29 61.072v-55.91c-11.346-2.144-22.42-4.213-33.287-6.254v53.862c10.861 2.71 21.934 5.475 33.287 8.302z m73.926 18.48v-60.458c-13.271-2.491-26.215-4.928-38.824-7.297v58.081c12.61 3.106 25.546 6.349 38.824 9.673zM363.274 516.518c-21.354-5.338-42.127-10.54-62.3-15.571v-85.825c20.173 3.789 40.946 7.68 62.3 11.735v89.661z m-218.63-289.095c-15.524-0.956-30.652-1.85-45.453-2.772v-73.387h45.418c0 25.355 0 50.784 0.034 76.159z m100.83 6.17c-18.14-1.085-35.772-2.177-52.935-3.221v-79.108h52.934v82.33z m117.8 7.258c-21.354-1.304-42.127-2.615-62.3-3.844v-85.756h62.3v89.6z m-218.63 103.751c-15.483-2.403-30.652-4.758-45.453-7.052v-73.427c14.8 1.365 29.935 2.778 45.452 4.253v76.226z m100.83 15.674c-18.14-2.826-35.772-5.563-52.935-8.24v-79.148c17.163 1.604 34.796 3.27 52.934 4.977v82.411z m117.8 18.303a33288.334 33288.334 0 0 1-62.3-9.687v-85.798c20.173 1.918 40.946 3.864 62.3 5.885v89.6z m-218.63 83.305c-15.483-3.89-30.611-7.639-45.453-11.36v-73.46c14.842 2.757 29.97 5.624 45.452 8.56v76.26z m280.575 153.218l179.508-89.088 13.844-7.605V384.014h-54.907v104.55l-138.445 68.13v-672.304H47.548V500.21l377.671 114.893z"  horiz-adv-x="1024" />

    
    <glyph glyph-name="chengshi" unicode="&#58904;" d="M866.556155 477.53735L735.687572 477.53735c-20.36584 0-37.157271-16.687054-37.157271-37.272905l0-503.665171 205.183126 0L903.713426 440.264445C903.713426 460.855412 887.077537 477.53735 866.556155 477.53735zM829.101101 29.864424L773.142625 29.864424l0 55.959499 55.959499 0L829.102125 29.864424zM829.101101 160.436248L773.142625 160.436248l0 55.959499 55.959499 0L829.102125 160.436248zM829.101101 309.659875L773.142625 309.659875l0 55.959499 55.959499 0L829.102125 309.659875zM642.61992 328.3127l-93.362364 0c-20.546965 0-37.257555-16.709567-37.257555-37.322024l0-354.37503c0-0.005117 0-0.010233 0-0.016373l167.877475 0c0 0.005117 0 0.010233 0 0.016373L679.877475 290.990676C679.877475 311.494663 663.196561 328.3127 642.61992 328.3127zM623.917976 29.864424l-55.959499 0 0 55.959499 55.959499 0L623.917976 29.864424zM623.917976 160.436248l-55.959499 0 0 55.959499 55.959499 0L623.917976 160.436248zM456.212416 626.760976l-18.824741 0c0 0.036839 0 0.073678 0 0.110517l0 55.738465c0 20.87954-16.751522 37.416168-37.415145 37.416168l-65.176418 0 0 83.819011c0 15.480576-12.527314 28.098965-27.979238 28.098965-15.560394 0-27.979238-12.580526-27.979238-28.098965l0-83.819011-65.176418 0c-20.682042 0-37.415145-16.751522-37.415145-37.416168l0-55.738465c0-0.036839 0-0.073678 0-0.110517l-18.824741 0c-20.380166 0-37.134759-16.711614-37.134759-37.32714l0-652.813073c0-0.007163 0-0.014326 0-0.021489l373.060601 0c0 0.007163 0 0.014326 0 0.021489L493.347175 589.433836C493.347175 610.199789 476.721519 626.760976 456.212416 626.760976zM269.5102 29.864424l-55.959499 0 0 55.959499 55.959499 0L269.5102 29.864424zM269.5102 160.436248l-55.959499 0 0 55.959499 55.959499 0L269.5102 160.436248zM269.5102 309.659875l-55.959499 0 0 55.959499 55.959499 0L269.5102 309.659875zM269.5102 458.884524l-55.959499 0 0 55.959499 55.959499 0L269.5102 458.884524zM400.082024 29.864424l-55.959499 0 0 55.959499 55.959499 0L400.082024 29.864424zM400.082024 160.436248l-55.959499 0 0 55.959499 55.959499 0L400.082024 160.436248zM400.082024 309.659875l-55.959499 0 0 55.959499 55.959499 0L400.082024 309.659875zM400.082024 458.884524l-55.959499 0 0 55.959499 55.959499 0L400.082024 458.884524z"  horiz-adv-x="1024" />

    
    <glyph glyph-name="zhihuixiaofang" unicode="&#58929;" d="M713.136-7.487H310.842c-16.77 0-30.358-12.063-30.358-26.95 0-14.878 13.587-26.961 30.358-26.961h402.305c16.77 0 30.38 12.083 30.38 26.961 0 14.898-13.61 26.961-30.39 26.95z m-381.36 491.194h360.435c15.303 0 27.728 11.03 27.728 24.626h-0.012v79.99c0 13.575-12.426 24.607-27.728 24.607H331.773c-15.303 0-27.727-11.03-27.727-24.607v-79.99c0-13.596 12.423-24.626 27.727-24.626zM537.719 782.79V813.287c0 8.897-11.522 16.11-25.719 16.11s-25.73-7.213-25.73-16.11V782.8c-81.355-11.03-143.728-73.229-143.728-148.518h338.927c0 75.281-62.407 137.478-143.75 148.51zM318.505 357.229h-70.69c-10.462 0-18.959-7.545-18.959-16.832v-140.134c0-9.297 8.497-16.822 18.959-16.822h70.69V357.228z m457.67 0h-70.69v-173.787h70.69c10.462 0 18.959 7.524 18.959 16.822V340.398c0 9.287-8.497 16.832-18.959 16.832z m-94.717-343.375V462.398H342.531v-448.544h338.927zM512 357.229c54.045 0 97.877-38.913 97.877-86.893 0-48.001-43.833-86.893-97.877-86.893-54.054 0-97.877 38.893-97.877 86.893 0 47.98 43.821 86.893 97.877 86.893zM445.462 270.336c0-32.619 29.785-59.06 66.525-59.06 36.741 0 66.525 26.443 66.525 59.06 0 32.619-29.785 59.06-66.525 59.06-36.741 0-66.525-26.443-66.525-59.06zM135.697 308.959h69.155v-77.245h-69.155z m683.429 0h69.178v-77.245h-69.178z"  horiz-adv-x="1024" />

    
    <glyph glyph-name="yehuashiyouqi" unicode="&#59119;" d="M898.048 144.896V276.48h-32.256v47.616c0 41.984-31.232 76.8-71.68 82.432v1.536c0 51.2-41.984 93.184-93.184 93.184h-3.072c-51.2 0-93.184-41.984-93.184-93.184v-168.96h-45.568v179.2c0 11.776-6.144 22.016-15.36 27.648 10.752 3.072 18.944 13.312 18.944 25.088 0 14.336-11.776 26.112-26.112 26.112h-20.992v24.576h-32.768v-24.576H460.8c-14.336 0-26.112-11.776-26.112-26.112 0-11.776 8.192-22.016 18.944-25.088-9.216-5.632-15.36-15.872-15.36-27.648v-179.2H394.24V404.48c0 8.704-7.168 15.36-15.36 15.36h-31.744V588.8c0 30.72-25.088 55.808-55.808 55.808v2.56c0 45.568-36.864 82.432-82.432 82.432s-82.432-36.864-82.432-82.432v-502.272h-41.472v-105.984h855.04v105.984h-41.984z m-262.144 263.68c0 34.304 27.648 61.952 61.952 61.952h3.072c34.304 0 61.952-27.648 61.952-61.952v-3.072c-36.864-8.704-64-41.984-64-80.896v-47.616h-32.256v-36.864h-31.232l0.512 168.448z m31.232-200.192v-63.488h-31.232v63.488h31.232z m-62.464 0v-63.488h-45.568v63.488h45.568zM362.496 389.12v-164.864c0-8.704 7.168-15.36 15.36-15.36h59.904v-63.488H346.624V389.12h15.872z m-71.68 224.256c13.824 0 25.088-11.264 25.088-25.088V419.84h-25.088V613.376z m0-224.256h25.088v-244.224h-25.088V389.12z"  horiz-adv-x="1024" />

    
    <glyph glyph-name="xiangshang" unicode="&#58952;" d="M1024 128.256L512.128 639.744 512 639.616l-0.128 0.128L0 128.256h132.416L512 507.84l379.648-379.584z"  horiz-adv-x="1024" />

    
    <glyph glyph-name="gongcheng" unicode="&#58968;" d="M48.258833 491.63647l384.122684-241.548682c21.393827-13.407862 49.231782-20.814789 78.346676-20.814789 29.113196 0 56.952849 7.405229 78.344978 20.814789l384.190607 241.548682c26.11103 16.471158 41.181291 41.118463 41.18129 67.552124 0 26.435359-15.004036 51.145492-41.18129 67.55552L589.073171 868.287701C546.290612 895.105124 475.162378 895.105124 432.383215 868.226571L48.258833 626.676192C22.142708 610.266164 7.138672 585.556031 7.138672 559.12237c0-26.435359 15.004036-51.075872 41.120161-67.4859z m386.93297-412.604204c21.203644-14.243306 48.403129-21.325904 75.604312-21.325904s54.395574 7.082598 75.599219 21.325904l415.349962 278.517092c15.684957 10.541541 19.882555 31.785939 9.383466 47.503159a33.852475 33.852475 0 0 1-21.623064 14.576126 33.845682 33.845682 0 0 1-25.562558-5.128134l-415.351661-278.515394c-19.795955-13.27881-55.803264-13.210887-75.599218 0L57.643997 414.568431a33.986621 33.986621 0 0 1-25.588029 5.102663 33.983225 33.983225 0 0 1-21.660422-14.552353c-10.405696-15.783445-6.160553-37.004069 9.512518-47.569383l415.283739-278.517092z m528.749639 151.390318l-415.349963-278.583316c-19.795955-13.210887-55.803264-13.210887-75.599218 0L57.643997 230.422584a33.969641 33.969641 0 0 1-47.248451-9.515914c-10.405696-15.783445-6.160553-37.000673 9.512518-47.571081L435.190104-105.181503c21.203644-14.236514 48.403129-21.325904 75.597521-21.325904 27.202881 0 54.402367 7.08939 75.599219 21.325904l415.35166 278.517092c14.559145 10.886247 18.096199 31.237466 8.060679 46.392629-10.033822 15.158559-30.154105 19.848594-45.857741 10.694366z m0 0"  horiz-adv-x="1024" />

    
    <glyph glyph-name="fangxiangyou" unicode="&#58880;" d="M744.81444 384c0-10.855232-4.312212-21.267373-11.989055-28.943193L349.061001-28.706552999999985c-15.985066-15.985066-41.902342-15.985066-57.886385 0-15.985066 15.985066-15.985066 41.901319 0 57.886385l354.821191 354.820168-354.821191 354.820168c-15.985066 15.985066-15.985066 41.901319 0 57.886385 15.985066 15.985066 41.901319 15.985066 57.886385 0l383.764384-383.76336C740.502227 405.267373 744.81444 394.856255 744.81444 384z"  horiz-adv-x="1024" />

    
    <glyph glyph-name="sheshi" unicode="&#59094;" d="M709.876208 449.414849L520.992303 560.916339c-5.445012 3.222391-12.539594 3.173273-18.034748-0.050142l-188.933024-111.50149c-5.794983-3.521197-9.341762-10.041704-9.142217-16.161075-0.100284-0.849344-0.149403-1.797949-0.149403-2.947122v-422.62853c0-10.490935 5.39487-20.281929 14.237259-25.577538l179.39274-105.956194a28.641317 28.641317 0 0 1 13.537318-3.747347h0.050142c4.895497 0 9.841136 1.39886 13.638625 3.847631l179.242313 105.756649c8.94165 5.095042 14.436804 14.987343 14.387686 25.677823V432.40443c-0.001023 6.944156-3.448542 13.264095-9.342786 17.010419zM484.074485-48.172907l-123.691113 73.036434V388.118807l123.691113-73.01085v-363.280864z m179.493024 73.036434l-123.640971-73.036434V315.158099l123.640971 73.036433v-363.331005zM314.123792 747.90201L503.257383 636.274654c1.898233-1.074472 4.995781-2.322905 8.691963-2.322905 3.247974 0 6.344498 0.849344 9.093099 2.522449l189.034331 111.552656c5.693676 3.546779 9.241478 9.991562 9.241478 16.859993 0 7.094582-3.647063 13.614066-9.442046 16.985859L521.142729 893.22377c-5.445012 3.222391-12.688997 3.247974-18.185174 0.02456L313.924247 781.747863c-5.694699-3.521197-9.191336-9.965979-9.191336-16.861016-0.001023-6.993275 3.595898-13.462616 9.390881-16.984837z m126.139885-149.618622c0 7.094582-3.647063 13.613042-9.442046 16.960277L242.088152 726.746178c-5.445012 3.196809-12.739139 3.146667-18.034748-0.050142L35.26876 615.293807c-5.895267-3.422959-9.541307-9.965979-9.541307-17.010419v-425.450808c0-10.591219 5.445012-20.382213 14.237259-25.577539l179.39274-105.907075c4.046153-2.397606 8.691963-3.696182 13.537317-3.796466h0.100284c4.945639 0 9.691733 1.348718 13.638625 3.796466l14.187118 8.493442V481.037057l169.600722 100.111069c6.094812 3.322675 9.842159 9.866718 9.842159 17.135262zM205.120193 116.982574L81.52834 189.9177V553.223123l123.590829-73.010851v-363.229698zM997.823316 602.055295l-0.299829 1.798972c-1.449002 4.770653-4.347005 8.691963-8.692986 11.465122l-177.143513 104.581894-11.939937 6.969738c-0.648776 0.37453-1.447978 0.724501-4.146436 1.724271-4.64581 1.298576-9.891278 0.499373-13.788028-1.923815l-188.533934-111.327528c-4.446265-2.52245-7.842619-7.093559-8.392134-10.465353-0.849344-2.098801-1.249457-4.322445-1.249457-6.594185 0-6.919597 3.596921-13.412474 9.442046-17.010419l170.000836-100.336196v-431.295933l14.287401-8.493442c4.196579-2.397606 8.94165-3.696182 13.537318-3.696182 4.796236 0 9.541307 1.299599 13.687743 3.746324l179.441859 105.856933c8.742105 5.245468 14.187117 15.086603 14.136975 25.627681V595.485669l0.100284 2.797719c0.001023 0.949628 0.001023 2.347464-0.448208 3.771907z m-55.351656-412.137595l-123.640971-72.935126V480.312556l123.640971 73.03541v-363.430266z"  horiz-adv-x="1024" />

    
    <glyph glyph-name="baojingzhanshi" unicode="&#58890;" d="M220.60532-58.031183l-33.419652-69.968817h663.495211l-33.508703 69.968817z m296.413352 647.771309c-146.031282 0-264.405799-118.387239-264.405799-264.41852v-324.820693h532.602636V325.321606c0 146.031282-118.387239 264.418521-264.41852 264.41852zM734.214603 317.803138a22.657175 22.657175 0 1 0-45.301629 0 166.41129 166.41129 0 0 1-166.220467 166.195023h-3.752872a22.669897 22.669897 0 0 0 0 45.327072h3.752872A211.776527 211.776527 0 0 0 734.214603 317.803138z m-524.130049 113.565751a43.100791 43.100791 0 0 1-33.8013 50.70831l-124.67171 25.036115a43.091886 43.091886 0 1 1-16.907011-84.509609l124.671711-25.010672a43.113513 43.113513 0 0 1 50.70831 33.775856z m-28.623607 288.93305l79.497298-99.35572a43.062627 43.062627 0 1 1 67.220951 53.825103l-79.408247 99.330277a43.08807 43.08807 0 1 1-67.310002-53.79966z m342.89809-37.605059a43.126235 43.126235 0 0 1 44.093077 42.070342l-0.31804 127.139702a43.080437 43.080437 0 1 1-86.137975 2.022734l0.292597-127.139701a43.037183 43.037183 0 0 1 42.070341-44.093077z m199.411129-77.907097a43.01174 43.01174 0 0 1 60.771098 3.816481l83.962581 95.501075a43.08807 43.08807 0 0 1-64.638465 56.891009l-84.026189-95.488353a43.024462 43.024462 0 0 1-10.177283-34.920801 42.197558 42.197558 0 0 1 14.133702-25.850297z m313.562074-155.801473a43.126235 43.126235 0 0 1-49.11811 36.116631l-125.676717-19.082405a43.126235 43.126235 0 1 1 13.001479-85.234741l125.638552 19.082405a43.100791 43.100791 0 0 1 36.154796 49.079945z m0 0"  horiz-adv-x="1037" />

    
    <glyph glyph-name="erweima" unicode="&#58889;" d="M544 0h64v-64h-64v64zM416 480V832H64v-352h64v-64h64v64h224z m-288 64V768h224v-224H128zM192 704h96v-96h-96v96zM608 832v-352h352V832H608z m288-288H672V768h224v-224zM736 704h96v-96h-96v96zM192 160h96v-96h-96v96zM64 416h64v-64H64v64zM192 416h64v-64h-64v64zM256 288H64v-352h352V288h-96v64h-64v-64z m96-64v-224H128V224h224zM480 800h64v-96h-64V800zM480 640h64v-64h-64v64zM672 416H544v96h-64v-96H320v-64h288v-64h64v64zM672 288h64v-64h-64v64zM480 288h64v-96h-64v96zM480 128h64v-128h-64V128zM608 192h64v-192h-64V192zM800 288h160v-64H800v64zM896 416h64v-64h-64v64zM736 416h128v-64H736v64zM736 192h64v-64h-64v64zM896 128h-32v-64h64v64h32v64h-64zM736 64h64v-64h-64v64zM800 0h160v-64H800v64z"  horiz-adv-x="1024" />

    
    <glyph glyph-name="xuexiao" unicode="&#58934;" d="M865.8432 352.45056h-114.68288a19.43552 19.43552 0 0 0-19.43552 19.4304v108.1344a58.4192 58.4192 0 0 1-21.4784 45.42464l-164.72064 131.97312V694.784a168.29952 168.29952 0 0 1-11.4944 6.016v-42.09664L369.95072 525.33248a58.43968 58.43968 0 0 1-21.4784-45.2096v-96.64512c4.21376-2.9696 8.59136-5.78048 13.06112-8.49408a184.56576 184.56576 0 0 0-13.06112 8.38656v-11.92448a19.4304 19.4304 0 0 0-19.4304-19.4304h-114.688c-31.96928-0.1792-57.856-26.01984-58.09152-57.98912v-234.73664c0-32.26624 26.15296-58.4192 58.41408-58.4192h210.688a38.87616 38.87616 0 0 1 38.97856 38.76864V101.27872c0 40.6272 32.93184 73.55392 73.55904 73.55392 42.99264 0 77.85472-34.85696 77.85472-77.8496v-57.23648a38.87616 38.87616 0 0 1 38.87104-38.87616h211.22048c32.26624 0 58.41408 26.15296 58.41408 58.4192v234.73664c0 32.26624-26.15296 58.42432-58.4192 58.42432z m-325.79072 169.87648h0.20992c29.65504 0 53.68832-24.0384 53.68832-53.68832 0-29.65504-24.03328-53.69344-53.68832-53.69344-29.64992 0-53.68832 24.0384-53.68832 53.69344-0.00512 29.568 23.90528 53.57056 53.4784 53.68832zM545.84832 706.27328c14.91968-6.01088 53.68832-19.8656 68.51072-7.7312 12.66688 10.09152 41.33376 6.76352 59.26912 3.43552a9.66144 9.66144 0 0 1 10.73664 10.73664 294.0672 294.0672 0 0 0 3.2256 64.43008 9.65632 9.65632 0 0 1-5.4784 10.19904c-21.47328 9.98912-64.96256 5.15584-81.07008-4.08064-12.1344-6.97856-36.29568-4.5056-50.46784-2.14528a9.55904 9.55904 0 0 1-7.52128-1.9712 5.66784 5.66784 0 0 1-3.00032 1.00352c-3.16416 0-5.73952-2.52928-5.80096-5.68832V701.3376c3.8656-1.82784 7.7312-3.8656 11.48928-6.016l0.10752 10.95168z m-0.39936 69.87264c0.20992-0.5376 0.36352-1.09568 0.39936-1.68448-0.00512 0.5888-0.22016 1.13664-0.39936 1.68448z"  horiz-adv-x="1024" />

    
    <glyph glyph-name="guanlang" unicode="&#58957;" d="M360.064 440.35333333v-164.428H123.341V440.35433333h236.723z m-52.326 242.97h120.601c-22.758-73.216-45.593-146.432-68.377-219.622H123.34c61.465 73.19 122.982 146.38 184.397 219.622z m287.872 0h120.704c61.44-73.216 122.956-146.432 184.396-219.622H663.86a721185.877 721185.877 0 0 0-68.25 219.622z m-143.975 0c-19.328-73.19-38.733-146.432-58.086-219.622h236.697c-19.302 73.19-38.656 146.432-57.958 219.622H451.635zM900.71 243.89933333v-164.403H663.962V243.89933333H900.71z m-207.948-89.19c26.24-10.957 51.2-26.342 72.294-46.438h27.955c-27.648 30.156-63.155 51.84-100.25 65.638v-19.2z m0-26.112v-20.352h33.74c-10.65 7.91-21.99 14.669-33.74 20.352z m133.58-20.326h24.09c-37.862 52.838-95.488 88.14-154.547 106.905h-3.149v-16.358c50.509-16.82 99.354-46.72 133.606-90.547z m45.62 14.028V150.61333333000005c-23.04 25.856-50.253 47.36-79.488 64.538h-33.639c43.264-21.556 83.559-52.455 113.127-92.852z m0 64v28.852h-35.303c12.288-8.781 24.141-18.432 35.303-28.852z m-241.562 57.6v-164.403H393.626V243.89933333H630.4z m-208-89.19c26.24-10.957 51.251-26.342 72.32-46.438h27.955c-27.648 30.156-63.18 51.84-100.275 65.638v-19.2z m0-26.112v-20.352h33.74c-10.623 7.91-21.99 14.669-33.74 20.352z m133.658-20.326h24.09c-37.863 52.838-95.54 88.14-154.574 106.905H422.4v-16.358c50.509-16.82 99.38-46.72 133.658-90.547z m45.593 14.028V150.61333333000005c-23.04 25.856-50.304 47.36-79.565 64.538h-33.612c43.315-21.556 83.635-52.455 113.177-92.852z m0 64v28.852H566.35a347.227 347.227 0 0 0 35.302-28.852z m-241.587 57.6v-164.403H123.341V243.89933333h236.723z m-207.974-89.19c26.24-10.957 51.225-26.342 72.32-46.438h27.98c-27.648 30.156-63.206 51.84-100.3 65.638v-19.2z m0-26.112v-20.352h33.74c-10.624 7.91-21.964 14.669-33.74 20.352z m133.632-20.326h24.09c-37.863 52.838-95.489 88.14-154.548 106.905h-3.174v-16.358c50.534-16.82 99.379-46.72 133.632-90.547z m45.593 14.028V150.61333333000005c-23.04 25.856-50.278 47.36-79.513 64.538h-33.639c43.29-21.556 83.61-52.455 113.152-92.852z m0 64v28.852h-35.302a352.938 352.938 0 0 0 35.302-28.852zM900.71 440.35433333v-164.429H663.962V440.35433333H900.71z m-207.948-89.293c26.24-10.906 51.2-26.24 72.294-46.413h27.955c-27.648 30.157-63.155 51.891-100.25 65.639v-19.226z m0-26.06v-20.353h33.74c-10.65 7.91-21.99 14.669-33.74 20.352z m133.58-20.353h24.09c-37.862 52.839-95.488 88.192-154.547 106.906h-3.149v-16.359c50.509-16.793 99.354-46.694 133.606-90.547z m45.62 14.055v28.288c-23.04 25.907-50.253 47.36-79.488 64.563h-33.639c43.264-21.555 83.559-52.455 113.127-92.851z m0 64v28.85h-35.303c12.288-8.806 24.141-18.457 35.303-28.85zM630.4 440.35333333v-164.428H393.626V440.35433333H630.4z m-208-89.292c26.24-10.906 51.251-26.24 72.32-46.413h27.955c-27.648 30.157-63.18 51.891-100.275 65.639v-19.226z m0-26.06v-20.353h33.74c-10.623 7.91-21.99 14.669-33.74 20.352z m133.658-20.353h24.09c-37.863 52.839-95.54 88.192-154.574 106.906H422.4v-16.359c50.509-16.793 99.38-46.694 133.658-90.547z m45.593 14.055v28.288c-23.04 25.907-50.304 47.36-79.565 64.563h-33.612c43.315-21.555 83.635-52.455 113.177-92.851z m0 64v28.85H566.35a354.243 354.243 0 0 0 35.302-28.85zM152.09 351.06133333c26.24-10.906 51.225-26.24 72.32-46.413h27.98c-27.648 30.157-63.206 51.891-100.3 65.639v-19.226z m0-26.06v-20.353h33.74c-10.624 7.91-21.964 14.669-33.74 20.352z m133.632-20.353h24.09c-37.863 52.839-95.489 88.192-154.548 106.906h-3.174v-16.359c50.534-16.793 99.379-46.694 133.632-90.547z m45.593 14.055v28.288c-23.04 25.907-50.278 47.36-79.513 64.563h-33.639c43.29-21.555 83.61-52.455 113.152-92.851z m0 64v28.85h-35.302a360.19 360.19 0 0 0 35.302-28.85z"  horiz-adv-x="1024" />

    
    <glyph glyph-name="fangxiangyou1" unicode="&#58881;" d="M279.18556 384c0 10.855232 4.312212 21.267373 11.989055 28.943193L674.938999 796.706553c15.985066 15.985066 41.902342 15.985066 57.886385 0 15.985066-15.985066 15.985066-41.901319 0-57.886385l-354.821191-354.820168 354.821191-354.820168c15.985066-15.985066 15.985066-41.901319 0-57.886385-15.985066-15.985066-41.901319-15.985066-57.886385 0l-383.764384 383.76336C283.497773 362.732627 279.18556 373.14374499999997 279.18556 384z"  horiz-adv-x="1024" />

    
    <glyph glyph-name="shusanguocheng" unicode="&#58981;" d="M690.519391 714.336943a87.614063 87.614063 0 0 1 80.684137 92.069015A88.109057 88.109057 0 0 1 692.49937 894.020021a84.1491 84.1491 0 0 1-81.179132-91.57402 84.644094 84.644094 0 0 1 79.199153-88.109058zM1129.084699 213.402303h-173.743141c-17.819809 0-25.739725 4.949947-26.23472 27.224708 0 41.08456-5.939936 82.664116-6.929926 123.748676a303.431754 303.431754 0 0 1-33.659639 140.578497c-14.849841 27.224709-26.234719 56.924391-39.104582 85.634083a183.148041 183.148041 0 0 0-7.424921 24.254741h57.914381a38.609587 38.609587 0 0 0 39.599576-25.739725c16.82982-34.154635 35.144624-67.814275 52.964434-98.998941a36.134613 36.134613 0 0 1 55.439406-16.82982 46.529502 46.529502 0 0 1 9.4049 60.389354c-21.284772 42.07455-43.559534 83.654105-64.844306 125.233661a66.32929 66.32929 0 0 1-63.854317 37.124602h-213.837713a84.1491 84.1491 0 0 1-75.239195-43.559534c-23.759746-36.134613-49.49947-71.279237-71.774232-107.908845a29.699682 29.699682 0 0 0-29.699682-16.334825H447.476991a42.07455 42.07455 0 0 1-42.07455-53.954423 40.589566 40.589566 0 0 1 43.064539-33.164645h120.778708a49.49947 49.49947 0 0 1 45.044518 25.24473c17.324815 26.729714 36.629608 52.469439 57.419386 82.664115 21.284772-49.49947 41.08456-95.533978 59.399365-141.568485a35.144624 35.144624 0 0 0-3.959958-23.759746c-19.799788-46.034508-40.589566-91.57402-61.379343-137.608528-11.384878-26.234719-23.264751-52.964433-34.64963-79.694147a135.628549 135.628549 0 0 1-34.649629 4.454952 148.498411 148.498411 0 0 1-111.868803-49.49947l-346.496293 270.762103a76.229184 76.229184 0 0 1 9.899894 36.629608 72.764222 72.764222 0 0 1-43.06454 64.349312l113.848783 304.916738h7.42492a44.549523 44.549523 0 1 1-44.549523 44.549523 44.054529 44.054529 0 0 1 22.274761-39.104582L90.585809 498.024258a56.429396 56.429396 0 0 1-16.334825 2.474973 74.249206 74.249206 0 0 1 0-148.498411 72.269227 72.269227 0 0 1 53.459428 23.264751l346.496293-269.772114a148.498411 148.498411 0 1 1 243.537395 0c26.729714 58.90437 52.964433 117.80874 79.199152 176.218115 7.919915 17.819809 16.334825 34.649629 24.749735 51.974444a49.49947 49.49947 0 0 0 6.434932-23.264751c3.959958-49.49947 7.424921-98.998941 12.374867-151.46838a51.974444 51.974444 0 0 1 49.499471-54.449417h238.092453a44.054529 44.054529 0 0 1 41.579555 23.759745 52.469439 52.469439 0 0 1-40.589566 85.13909z"  horiz-adv-x="1183" />

    
    <glyph glyph-name="guidaojiaotong" unicode="&#58943;" d="M864.581818 877.511111H158.513131c-38.787879 0-70.593939-31.806061-70.593939-70.593939V100.848485c0-38.787879 31.806061-70.593939 70.593939-70.59394H236.735354l-58.828283-85.979798c-7.369697-10.731313-8.274747-24.824242-2.068687-36.460606 6.076768-11.636364 18.10101-18.876768 31.159596-18.876767 1.034343 0 2.068687 0.258586 3.10303 0.387879 1.163636-0.129293 2.456566-0.387879 3.620202-0.387879H815.967677c0.517172 0 0.905051 0.129293 1.422222 0.258586 3.749495 0.129293 7.49899 1.034343 10.989899 2.327272 0.905051 0.387879 1.810101 0.775758 2.585859 1.29293 1.680808 0.775758 3.361616 1.292929 4.913131 2.327272 7.757576 5.30101 13.058586 13.446465 14.739394 22.626263 1.680808 9.179798-0.258586 18.747475-5.559596 26.375758L786.230303 30.125253h78.222222c38.787879 0 70.593939 31.806061 70.59394 70.593939V806.917172c0.129293 38.787879-31.547475 70.593939-70.464647 70.593939zM193.810101 206.739394c0 25.212121 13.446465 48.484848 35.29697 61.155555 21.850505 12.670707 48.743434 12.670707 70.593939 0s35.29697-35.943434 35.29697-61.155555c0-39.046465-31.676768-70.593939-70.59394-70.593939s-70.593939 31.547475-70.593939 70.593939z m555.313131-247.208081H273.971717l48.355556 70.59394H700.89697l48.226262-70.59394z m9.567677 176.614142c-25.212121 0-48.484848 13.446465-61.155555 35.296969-12.670707 21.850505-12.670707 48.743434 0 70.59394s35.943434 35.29697 61.155555 35.296969c39.046465 0 70.593939-31.676768 70.593939-70.593939 0-39.046465-31.547475-70.593939-70.593939-70.593939zM829.284848 453.818182c0-38.787879-31.806061-70.593939-70.593939-70.59394H264.40404c-38.787879 0-70.593939 31.806061-70.593939 70.59394v70.593939c0 38.787879 31.806061 70.593939 70.593939 70.59394h494.286869c38.787879 0 70.593939-31.806061 70.593939-70.59394V453.818182zM793.987879 701.026263H229.107071c-19.393939 0-35.29697 15.90303-35.29697 35.296969s15.90303 35.29697 35.29697 35.29697H793.987879c19.393939 0 35.29697-15.90303 35.296969-35.29697S813.381818 701.026263 793.987879 701.026263z m0 0"  horiz-adv-x="1024" />

    
    <glyph glyph-name="dianli" unicode="&#58948;" d="M568.618695 553.045505L820.171262 893.618471H482.496301L203.814391 348.549653l206.992155 0.143465L222.565344-125.618471l595.999103 678.592244z m227.436001-9.798699"  horiz-adv-x="1024" />

    
    <glyph glyph-name="gonglu" unicode="&#58960;" d="M177.9305962 674.1229896c7.15406719 20.95119942 13.92488108 37.55885361 20.4401905 49.82296927 6.51531281 12.26411572 13.54162778 21.33445274 20.95119942 27.21100776 7.53732047 6.00430732 15.96889981 9.83684366 25.29473795 11.49760908 9.3258381 1.78851765 20.8234472 2.93827751 34.36507497 3.7047841h124.81292756l-124.81292756-763.82446079H114.43824701c-44.4574197 0-72.69043517 15.20239319-84.44354866 45.73493182-11.88086235 30.40478639-9.07033706 73.58469395 8.04832598 129.53972266 5.74880281 18.26842293 12.51961673 41.13588887 20.44019387 68.73015003 7.92057375 27.59426113 16.35215307 57.36029308 25.294738 89.17034044 9.3258381 32.8320584 18.26842293 65.6641202 26.95550327 98.62393075 8.94258482 33.85406946 17.75741744 66.30287456 26.31674897 97.09091766 8.68708038 30.78803969 16.35215307 58.63780526 23.12297033 83.42153759 6.77081388 24.9114846 12.64736898 44.58517195 17.75741743 59.27655963z m369.0732331-36.66459475h-78.56699015l6.38756057 128.00670613h64.5143569l7.66507268-128.00670613z m14.94689216-318.99476283H453.23444595l11.8808624 254.9914081h84.95455075l11.88086236-254.9914081z m2.17177099-64.00335477l11.88086231-254.991408H438.28755381l11.88086239 254.991408h113.95407625z m420.68472334-89.17034382c4.98229623-15.33014542 8.94258482-32.57655729 11.88086232-51.48373466 2.81052531-18.90717734 2.81052531-36.53684596 0-53.01675119-2.81052531-16.35215307-9.58133919-30.27703753-19.92918833-41.39138995-10.47559799-11.11435581-26.06124454-16.86315859-46.8846951-16.86315861h-195.84259726l-125.83493858 763.82446079h101.05120277c35.89808813 0 65.91962128-7.66507276 90.32010376-23.12296698 24.40047908-15.33014542 43.05215529-43.05215529 55.95502876-82.91053208 4.34354187-12.51961673 9.70909146-32.19330405 16.09665201-58.76555749l23.63397252-90.19235152c8.55933152-33.59856837 17.37416416-68.47464547 26.31674892-104.88373912 8.94258482-36.28134146 17.37416416-70.64641643 25.29473792-102.83972043l22.61196488-86.10431413c6.77081388-25.03923685 11.75311009-42.41340102 15.33014541-52.25024463z m0 0"  horiz-adv-x="1024" />

    
    <glyph glyph-name="dianhua" unicode="&#59043;" d="M799.451429-128h-19.602286C645.851429-128 385.974857-1.974857 256 128 129.974857 261.851429 0 517.851429 0 651.849143V671.451429l11.849143 15.725714C74.825143 781.750857 165.449143 896 244.150857 896c78.774857 0 204.8-122.148571 240.274286-208.749714 31.451429-74.825143 3.949714-118.125714-15.725714-137.801143-27.574857-27.574857-55.149714-43.373714-74.825143-59.099429a166.765714 166.765714 0 0 1-27.574857-19.748571c0-31.451429 59.026286-90.550857 102.4-133.851429 43.300571-43.300571 102.4-102.4 133.851428-102.4 3.949714 0 11.849143 15.725714 15.798857 23.625143 11.776 19.748571 31.451429 47.250286 59.099429 74.825143 19.675429 19.748571 47.250286 31.451429 74.825143 31.451429 110.226286 0 271.725714-165.302857 271.725714-256 0-78.701714-114.249143-169.325714-208.749714-232.301715l-15.725715-3.949714zM78.848 647.899429c3.949714-114.249143 122.148571-350.573714 236.251429-460.8 114.249143-114.249143 346.697143-232.374857 460.8-236.324572 110.299429 74.825143 169.398857 137.874286 169.398857 165.376 0 43.373714-126.025143 177.298286-192.950857 177.298286a30.061714 30.061714 0 0 1-19.748572-7.899429c-19.675429-19.748571-35.401143-43.300571-47.250286-63.049143-19.675429-31.451429-39.350857-62.976-82.651428-62.976-66.998857 0-129.974857 62.976-189.074286 126.025143-63.049143 59.099429-126.025143 126.025143-126.025143 189.001143 0 47.323429 31.451429 63.049143 62.976 82.724572a290.377143 290.377143 0 0 1 63.049143 47.250285c11.776 11.849143 11.776 27.574857 0 51.2-31.451429 70.948571-137.874286 161.499429-169.398857 161.499429-23.625143 0-90.550857-59.099429-165.376-169.325714z"  horiz-adv-x="1024" />

    
    <glyph glyph-name="jichang" unicode="&#58891;" d="M850.688 526.196364c-38.632727-18.408727-407.412364-172.218182-457.402182-185.716364-49.989818-13.498182-103.447273-28.974545-147.409454 9.192727-29.300364 25.437091-64.698182 57.716364-106.24 96.791273l82.338909 34.676364 93.602909-34.048c1.117091-0.395636 2.350545-0.395636 3.490909 0l116.992 42.379636-166.772364 134.656 65.442909 34.094545a45.986909 45.986909 0 0 0 40.261819 1.070546c144.663273-65.792 221.789091-96.581818 231.400727-92.299636 44.730182 19.921455 87.784727 39.191273 128.535273 57.134545 101.166545 44.544 204.450909-55.668364 115.758545-97.931636zM224.977455 202.612364h579.304727a37.306182 37.306182 0 1 0 0-74.612364H224.977455a37.306182 37.306182 0 1 0 0 74.612364z"  horiz-adv-x="1024" />

    


  </font>
</defs>
</svg>
